<?xml version="1.0" encoding="UTF-8"?>
<svg width="64px" height="64px" viewBox="0 0 64 64" version="1.1" xmlns="http://www.w3.org/2000/svg" xmlns:xlink="http://www.w3.org/1999/xlink">
    <!-- Generator: Sketch 62 (91390) - https://sketch.com -->
    <title>icon/64px/erreor</title>
    <desc>Created with Sketch.</desc>
    <g id="icon/64px/erreor" stroke="none" stroke-width="1" fill="none" fill-rule="evenodd" opacity="0.200000003">
        <path d="M32,6 C46.3594035,6 58,17.6405965 58,32 C58,46.3594035 46.3594035,58 32,58 C17.6405965,58 6,46.3594035 6,32 C6,17.6405965 17.6405965,6 32,6 Z M23.5147186,20.6862915 C22.73367,19.9052429 21.4673401,19.9052429 20.6862915,20.6862915 C19.9052429,21.4673401 19.9052429,22.73367 20.6862915,23.5147186 L20.6862915,23.5147186 L29.17228,31.9992929 L20.6862915,40.4852814 C19.9052429,41.26633 19.9052429,42.5326599 20.6862915,43.3137085 C21.4673401,44.0947571 22.73367,44.0947571 23.5147186,43.3137085 L23.5147186,43.3137085 L32,34.8284271 L40.4852814,43.3137085 C41.26633,44.0947571 42.5326599,44.0947571 43.3137085,43.3137085 C44.0947571,42.5326599 44.0947571,41.26633 43.3137085,40.4852814 L43.3137085,40.4852814 L34.8284271,32 L43.3137085,23.5147186 C44.0947571,22.73367 44.0947571,21.4673401 43.3137085,20.6862915 C42.5326599,19.9052429 41.26633,19.9052429 40.4852814,20.6862915 L40.4852814,20.6862915 L32.0007071,29.1708658 Z" id="形状结合" fill="#ECECEC"></path>
    </g>
</svg>