<?xml version="1.0" encoding="UTF-8"?>
<svg width="80px" height="80px" viewBox="0 0 80 80" version="1.1" xmlns="http://www.w3.org/2000/svg" xmlns:xlink="http://www.w3.org/1999/xlink">
    <!-- Generator: Sketch 58 (84663) - https://sketch.com -->
    <title>退出全屏</title>
    <desc>Created with Sketch.</desc>
    <g id="全流程_V1.2" stroke="none" stroke-width="1" fill="none" fill-rule="evenodd">
        <g id="26ppt资源缩略图备份" transform="translate(-1504.000000, -890.000000)">
            <g id="退出全屏" transform="translate(1504.000000, 890.000000)">
                <rect id="矩形" fill="#000000" opacity="0.400000006" x="0" y="0" width="80" height="80" rx="6"></rect>
                <path d="M6,0 L74,0 C77.3137085,0 80,2.6862915 80,6 L80,74 C80,77.3137085 77.3137085,80 74,80 L6,80 C2.6862915,80 0,77.3137085 0,74 L0,6 C0,2.6862915 2.6862915,0 6,0 Z M6,1 C3.23857625,1 1,3.23857625 1,6 L1,74 C1,76.7614237 3.23857625,79 6,79 L74,79 C76.7614237,79 79,76.7614237 79,74 L79,6 C79,3.23857625 76.7614237,1 74,1 L6,1 Z" id="矩形" fill-opacity="0.501939467" fill="#FFFFFF" fill-rule="nonzero"></path>
                <path d="M56.0769231,21 L59,23.9230769 L42.923,40 L59,56.0769231 L56.0769231,59 L39.999,42.923 L23.9230769,59 L21,56.0769231 L37.076,40 L21,23.9230769 L23.9230769,21 L40,37.077 L56.0769231,21 Z" id="Combined-Shape" fill="#FFFFFF"></path>
            </g>
        </g>
    </g>
</svg>