<?xml version="1.0" encoding="UTF-8"?>
<svg width="40px" height="40px" viewBox="0 0 40 40" version="1.1" xmlns="http://www.w3.org/2000/svg" xmlns:xlink="http://www.w3.org/1999/xlink">
    <!-- Generator: Sketch 62 (91390) - https://sketch.com -->
    <title>icon/40px/bar/page_last</title>
    <desc>Created with Sketch.</desc>
    <g id="icon/40px/bar/page_last" stroke="none" stroke-width="1" fill="none" fill-rule="evenodd">
        <path d="M9.71723353,5.52938666 L29.0189387,19.7758833 C29.4188573,20.0710613 29.5037663,20.6345485 29.2085883,21.0344671 C29.1551989,21.1068011 29.0912727,21.1707273 29.0189387,21.2241167 L9.71723353,35.4706133 C9.51727424,35.6182023 9.23553067,35.5757478 9.08794166,35.3757885 C9.03082062,35.2983987 9,35.2047423 9,35.108555 L9,30.0585763 C9,29.7804178 9.12861834,29.5178892 9.34841398,29.3474133 L20.2969815,20.8555815 C20.4933637,20.7032652 20.5290863,20.4205892 20.37677,20.224207 C20.3536269,20.1943684 20.32682,20.1675616 20.2969815,20.1444185 L9.34841398,11.6525867 C9.12861834,11.4821108 9,11.2195822 9,10.9414237 L9,5.89144499 C9,5.64291685 9.20147186,5.44144499 9.45,5.44144499 C9.54618729,5.44144499 9.63984373,5.47226561 9.71723353,5.52938666 Z" id="路径" fill="#FBFCFE" transform="translate(19.500000, 20.500000) scale(-1, 1) translate(-19.500000, -20.500000) "></path>
    </g>
</svg>