<?xml version="1.0" encoding="utf-8"?>
<!-- Generator: Adobe Illustrator 23.0.3, SVG Export Plug-In . SVG Version: 6.00 Build 0)  -->
<svg version="1.1" id="图层_1" xmlns="http://www.w3.org/2000/svg" xmlns:xlink="http://www.w3.org/1999/xlink" x="0px" y="0px"
	 viewBox="0 0 90 90" style="enable-background:new 0 0 90 90;" xml:space="preserve">
<style type="text/css">
	.st0{opacity:0.3;enable-background:new    ;}
	.st1{fill:#FFFFFF;fill-opacity:0.797;}
	.st2{fill:#FFFFFF;}
</style>
<title>01 icon/特殊/视频播放大/normal</title>
<desc>Created with Sketch.</desc>
<g>
	<path id="矩形" class="st0" d="M45,0L45,0c24.9,0,45,20.1,45,45l0,0c0,24.9-20.1,45-45,45l0,0C20.1,90,0,69.9,0,45l0,0
		C0,20.1,20.1,0,45,0z"/>
	<path class="st1" d="M45,0c24.9,0,45,20.1,45,45S69.9,90,45,90S0,69.9,0,45S20.1,0,45,0z M45,1C20.7,1,1,20.7,1,45s19.7,44,44,44
		s44-19.7,44-44S69.3,1,45,1z"/>
	<path class="st2" d="M36,28l25,17L36,62V28z"/>
</g>
</svg>
