<svg xmlns="http://www.w3.org/2000/svg" width="32" height="32" viewBox="0 0 32 32">
  <path fill="#D1D1D1" fill-rule="evenodd" d="M8.63603897,9.13603897 C9.22182541,8.55025253 10.1715729,8.55025253 10.7573593,9.13603897 L16,14.3786797 L21.2426407,9.13603897 C21.8284271,8.55025253 22.7781746,8.55025253 23.363961,9.13603897 C23.9497475,9.72182541 23.9497475,10.6715729 23.363961,11.2573593 L18.1206132,16.5007071 L23.363961,21.7426407 C23.9497475,22.3284271 23.9497475,23.2781746 23.363961,23.863961 C22.7781746,24.4497475 21.8284271,24.4497475 21.2426407,23.863961 L15.9992929,18.6220275 L10.7573593,23.863961 C10.1715729,24.4497475 9.22182541,24.4497475 8.63603897,23.863961 C8.05025253,23.2781746 8.05025253,22.3284271 8.63603897,21.7426407 L13.8786797,16.5 L8.63603897,11.2573593 C8.05025253,10.6715729 8.05025253,9.72182541 8.63603897,9.13603897 Z"/>
</svg>
