<svg xmlns="http://www.w3.org/2000/svg" width="32" height="32" viewBox="0 0 32 32">
  <path fill="#D1D1D1" fill-rule="evenodd" d="M15,9 C17.1421954,9 18.8910789,10.6839685 18.9951047,12.8003597 L19,13 L19,25 C19,27.1421954 17.3160315,28.8910789 15.1996403,28.9951047 L15,29 L7,29 C4.85780461,29 3.10892112,27.3160315 3.00489531,25.1996403 L3,25 L3,13 C3,10.8578046 4.68396847,9.10892112 6.80035966,9.00489531 L7,9 L15,9 Z M15,12 L7,12 C6.48716416,12 6.06449284,12.3860402 6.00672773,12.8833789 L6,13 L6,25 C6,25.5128358 6.38604019,25.9355072 6.88337887,25.9932723 L7,26 L15,26 C15.5128358,26 15.9355072,25.6139598 15.9932723,25.1166211 L16,25 L16,13 C16,12.4871642 15.6139598,12.0644928 15.1166211,12.0067277 L15,12 Z M23,3 C25.1421954,3 26.8910789,4.68396847 26.9951047,6.80035966 L27,7 L27,19 C27,21.1421954 25.3160315,22.8910789 23.1996403,22.9951047 L23,23 L20.999,23 L20.999,20 L23,20 C23.5128358,20 23.9355072,19.6139598 23.9932723,19.1166211 L24,19 L24,7 C24,6.48716416 23.6139598,6.06449284 23.1166211,6.00672773 L23,6 L15,6 C14.4871642,6 14.0644928,6.38604019 14.0067277,6.88337887 L14,7 L11,7 C11,4.85780461 12.6839685,3.10892112 14.8003597,3.00489531 L15,3 L23,3 Z M11,7 L14,7 L14,9 L11,9 L11,7 Z M19,20 L21,20 L21,23 L19,23 L19,20 Z"/>
</svg>
