<?xml version="1.0" encoding="UTF-8"?>
<svg width="32px" height="32px" viewBox="0 0 32 32" version="1.1" xmlns="http://www.w3.org/2000/svg" xmlns:xlink="http://www.w3.org/1999/xlink">
    <title>01 通用/01 图标/32px/trush</title>
    <g id="icon/button" stroke="none" stroke-width="1" fill="none" fill-rule="evenodd">
        <g id="01-通用/01-图标/32px/trush" fill="#FBFCFE">
            <path d="M26.5,8 C27.3284271,8 28,8.67157288 28,9.5 C28,10.3284271 27.3284271,11 26.5,11 L25.5,11 L25.5,25 C25.5,26.8685634 24.0357224,28.3951264 22.1920352,28.4948211 L22,28.5 L10,28.5 C8.1314366,28.5 6.60487355,27.0357224 6.50517886,25.1920352 L6.5,25 L6.5,11 L5.5,11 C4.67157288,11 4,10.3284271 4,9.5 C4,8.67157288 4.67157288,8 5.5,8 L26.5,8 Z M22.5,11 L9.5,11 L9.5,25 C9.5,25.2147774 9.63542004,25.3979258 9.8255338,25.4687187 L9.91012437,25.4919443 L10,25.5 L22,25.5 C22.2454599,25.5 22.4496084,25.3231248 22.4919443,25.0898756 L22.5,25 L22.5,11 Z M13,13 C13.5522847,13 14,13.4477153 14,14 L14,22 C14,22.5522847 13.5522847,23 13,23 C12.4477153,23 12,22.5522847 12,22 L12,14 C12,13.4477153 12.4477153,13 13,13 Z M19,13 C19.5522847,13 20,13.4477153 20,14 L20,22 C20,22.5522847 19.5522847,23 19,23 C18.4477153,23 18,22.5522847 18,22 L18,14 C18,13.4477153 18.4477153,13 19,13 Z M19,1.5 C20.8685634,1.5 22.3951264,2.9642776 22.4948211,4.8079648 L22.5,5 L22.5,7 L19.5,7 L19.5,5 C19.5,4.75454011 19.3231248,4.55039163 19.0898756,4.50805567 L19,4.5 L13,4.5 C12.7545401,4.5 12.5503916,4.67687516 12.5080557,4.91012437 L12.5,5 L12.5,7 L9.5,7 L9.5,5 C9.5,3.1314366 10.9642776,1.60487355 12.8079648,1.50517886 L13,1.5 L19,1.5 Z" id="形状结合"></path>
        </g>
    </g>
</svg>