<?xml version="1.0" encoding="UTF-8"?>
<svg width="30px" height="30px" viewBox="0 0 30 30" version="1.1" xmlns="http://www.w3.org/2000/svg" xmlns:xlink="http://www.w3.org/1999/xlink">
    <!-- Generator: Sketch 60 (88103) - https://sketch.com -->
    <title>01 icon/30px/深色/删除</title>
    <desc>Created with Sketch.</desc>
    <g id="01-icon/30px/深色/删除" stroke="none" stroke-width="1" fill="none" fill-rule="evenodd">
        <path d="M22,7 L26,7 L26,9 L23,9 L23,26 L7,26 L7,9 L4,9 L4,7 L8,7 L8,3 L22,3 L22,7 Z M21,9 L9,9 L9,24 L20.999,24 L21,9 Z M13,12 L13,22 L11,22 L11,12 L13,12 Z M19,12 L19,22 L17,22 L17,12 L19,12 Z M20,7 L20,5 L10,5 L10,7 L20,7 Z" id="Combined-Shape" fill="#FFFFFF"></path>
    </g>
</svg>