<?xml version="1.0" encoding="UTF-8"?>
<svg width="32px" height="32px" viewBox="0 0 32 32" version="1.1" xmlns="http://www.w3.org/2000/svg" xmlns:xlink="http://www.w3.org/1999/xlink">
    <title>01 通用/01 图标/32px/setting1</title>
    <g id="icon/button" stroke="none" stroke-width="1" fill="none" fill-rule="evenodd">
        <g id="01-通用/01-图标/32px/setting3" fill="#FBFCFE" fill-rule="nonzero">
            <g id="编组">
                <path d="M22,4 C24.209139,4 26,5.790861 26,8 C26,9.37712561 25.3040743,10.5917091 24.2447216,11.3112515 L25.6906609,18.0594064 C27.5706509,18.386623 29,20.0263903 29,22 C29,24.209139 27.209139,26 25,26 C23.5231587,26 22.2332507,25.1996436 21.5403582,24.009013 L11.7444885,25.4097779 C11.1743732,26.9233065 9.71292425,28 8,28 C5.790861,28 4,26.209139 4,24 C4,22.3709099 4.97388121,20.969282 6.37121022,20.3455496 L7.16892185,11.5572254 C5.88078102,10.8928152 5,9.54926631 5,8 C5,5.790861 6.790861,4 9,4 C10.6785069,4 12.1155427,5.03386078 12.7090486,6.49952358 L18.2909514,6.49952358 C18.8844573,5.03386078 20.3214931,4 22,4 Z M25,20 C23.8954305,20 23,20.8954305 23,22 C23,22.0667143 23.0032665,22.1326658 23.0096483,22.197703 C23.0140532,22.2424922 23.0198634,22.2864161 23.0270744,22.3298667 L23.0096483,22.197703 C23.0153575,22.2558854 23.0235599,22.3133361 23.0341472,22.369947 L23.0270744,22.3298667 C23.0352733,22.3792705 23.0452829,22.4280625 23.0570328,22.4761723 L23.0341472,22.369947 C23.0444679,22.4251321 23.0570548,22.4795191 23.0718079,22.5330077 L23.0570328,22.4761723 C23.0710196,22.5334405 23.0874722,22.589742 23.1062719,22.6449578 L23.0718079,22.5330077 C23.0851718,22.5814599 23.100313,22.6291749 23.117157,22.6760783 L23.1062719,22.6449578 C23.1608432,22.8052369 23.2351908,22.9563678 23.3264065,23.0954425 C23.3359083,23.1099342 23.3457599,23.1245355 23.3557975,23.138998 L23.3264065,23.0954425 C23.3548804,23.1388559 23.3849979,23.1810946 23.4166707,23.22207 L23.3557975,23.138998 C23.3848866,23.1809105 23.4155371,23.2216576 23.4476649,23.2611548 L23.4166707,23.22207 C23.4471503,23.2615017 23.47907,23.2997635 23.5123512,23.3367766 L23.4476649,23.2611548 C23.4818567,23.3031897 23.5177216,23.343809 23.5551582,23.3829115 L23.5123512,23.3367766 C23.5485817,23.3770696 23.5864256,23.4158829 23.6257812,23.4531146 L23.5551582,23.3829115 C23.5892314,23.4185009 23.6246067,23.4528337 23.6612073,23.4858334 L23.6257812,23.4531146 C23.6593848,23.4849048 23.6940906,23.5155419 23.7298351,23.5449627 L23.6612073,23.4858334 C23.7020488,23.5226568 23.7444162,23.5578202 23.7882031,23.5912173 L23.7298351,23.5449627 C23.775298,23.5823826 23.8224413,23.6178348 23.8711348,23.6511891 L23.7882031,23.5912173 C24.1244651,23.8476908 24.5444457,24 25,24 C26.1045695,24 27,23.1045695 27,22 C27,21.3472998 26.6873394,20.7676255 26.2036205,20.4025794 L26.1899861,20.3923805 L26.0518394,20.298607 C26.0442821,20.2939249 26.0366913,20.2892919 26.0290675,20.2847082 C25.9899666,20.2611987 25.949965,20.2389726 25.909152,20.2181074 L26.0290675,20.2847082 C25.978376,20.254231 25.9262225,20.2259374 25.8727372,20.1999573 L25.909152,20.2181074 C25.7995659,20.1620828 25.6841304,20.1158703 25.5640042,20.0806286 C25.5449859,20.0750515 25.5260659,20.0698057 25.5070354,20.0648333 L25.5640042,20.0806286 C25.5122308,20.0654398 25.4595862,20.0522888 25.406163,20.0412684 L25.5070354,20.0648333 C25.4525286,20.0505912 25.3971155,20.0385911 25.3409004,20.0289373 L25.406163,20.0412684 C25.3480699,20.0292847 25.2890562,20.0198204 25.2292411,20.0129948 L25.3409004,20.0289373 C25.2838778,20.0191449 25.22603,20.0117667 25.1674661,20.0069117 L25.2292411,20.0129948 C25.1765749,20.006985 25.1232873,20.0030207 25.06946,20.0011836 Z M12.7094497,9.4994856 C12.2582542,10.614575 11.3188491,11.4798692 10.1562632,11.8303395 L9.39171119,20.2487562 C10.4071998,20.6256474 11.2280779,21.4030934 11.662408,22.3891564 L21.1163486,21.0383566 C21.3561189,20.0667926 21.950942,19.2350766 22.7552784,18.6887485 L21.3103407,11.9407678 C19.935361,11.7018107 18.8013,10.7607824 18.2909514,9.50047642 Z M22,6 C21.497923,6 21.0390564,6.1850063 20.6878531,6.49056628 L20.6775547,6.49958804 L20.5665641,6.60527205 C20.556701,6.61540711 20.5469445,6.6256464 20.5372964,6.63598812 C20.5132809,6.66172788 20.4898829,6.68816656 20.4671875,6.71521472 L20.5372964,6.63598812 C20.497833,6.67828848 20.4601829,6.7223024 20.4244697,6.76790607 L20.4671875,6.71521472 C20.4347931,6.75382211 20.4038303,6.79367123 20.374381,6.83468036 L20.4244697,6.76790607 C20.3926452,6.80854403 20.3623589,6.85044438 20.3336983,6.89351951 L20.374381,6.83468036 C20.3424712,6.8791157 20.3123382,6.92491298 20.2840859,6.97196825 L20.3336983,6.89351951 C20.3056781,6.9356322 20.2792118,6.97886775 20.2543813,7.0231443 L20.2840859,6.97196825 C20.2213441,7.07646738 20.1678778,7.18717072 20.1248257,7.30293967 C20.1176574,7.32222137 20.1108406,7.34145763 20.1043124,7.36082661 L20.1248257,7.30293967 C20.1068981,7.35114761 20.0907764,7.40023393 20.0765428,7.45011642 L20.1043124,7.36082661 C20.0861869,7.41460425 20.0702855,7.46940503 20.0567178,7.52511953 L20.0765428,7.45011642 C20.0622101,7.50034612 20.0497917,7.55138311 20.0393718,7.60314345 L20.0567178,7.52511953 C20.044784,7.57412431 20.0346556,7.623836 20.026407,7.67418015 L20.0393718,7.60314345 C20.0279256,7.66000142 20.0188909,7.71773224 20.0123787,7.77622464 L20.026407,7.67418015 C20.017596,7.72795733 20.0109298,7.78245617 20.0064993,7.83758593 L20.0123787,7.77622464 C20.0073755,7.8211638 20.0038613,7.8665525 20.0018866,7.91234028 L20,8 C20,8.06740212 20.0033342,8.1340255 20.0098467,8.19971419 C20.0140358,8.24199673 20.0195634,8.28402394 20.0263742,8.32561951 L20.0098467,8.19971419 C20.016395,8.26576382 20.0261565,8.33086845 20.0389729,8.39486958 L20.0263742,8.32561951 C20.0346278,8.37602624 20.0447658,8.42579907 20.0567136,8.47486329 L20.0389729,8.39486958 C20.0494764,8.44732126 20.0620317,8.49903177 20.0765514,8.54991385 L20.0567136,8.47486329 C20.0702864,8.53060067 20.0861947,8.58542358 20.1043289,8.6392225 L20.0765514,8.54991385 C20.0907649,8.59972272 20.1068609,8.64873774 20.1247575,8.69687706 L20.1043289,8.6392225 C20.1439851,8.75687036 20.1942861,8.86962135 20.2540866,8.97633002 C20.2640449,8.99408736 20.2739563,9.01116136 20.2841106,9.02807285 L20.2540866,8.97633002 C20.2791167,9.02099395 20.305811,9.06459931 20.3340855,9.10706212 L20.2841106,9.02807285 C20.3104028,9.07186124 20.3383237,9.11456018 20.3677895,9.15608591 L20.3340855,9.10706212 C20.3625857,9.14986385 20.3926915,9.19150472 20.4243168,9.23189869 L20.3677895,9.15608591 C20.3992217,9.20038274 20.4324118,9.24334455 20.4672583,9.28486965 L20.4243168,9.23189869 C20.4600927,9.27759403 20.4978131,9.32169371 20.5373536,9.36407322 L20.4672583,9.28486965 C20.4990106,9.32270764 20.5321382,9.35935272 20.5665641,9.39472795 L20.5373536,9.36407322 C20.5818423,9.41175625 20.6286352,9.45726162 20.6775547,9.50041196 L20.6878531,9.50943372 C20.7229734,9.53998971 20.7591704,9.56934017 20.7963795,9.59742065 L20.8100139,9.60761954 L20.9481606,9.70139303 C20.9557179,9.70607505 20.9633087,9.71070813 20.9709325,9.71529182 C21.0100334,9.73880126 21.050035,9.76102741 21.090848,9.78189258 L20.9709325,9.71529182 C21.021624,9.74576897 21.0737775,9.77406263 21.1272628,9.80004267 L21.090848,9.78189258 C21.2004341,9.83791718 21.3158696,9.88412968 21.4359958,9.91937137 C21.4550141,9.92494851 21.4739341,9.93019426 21.4929646,9.93516672 L21.4359958,9.91937137 C21.4877692,9.93456023 21.5404138,9.94771122 21.593837,9.95873159 L21.4929646,9.93516672 C21.5474714,9.94940879 21.6028845,9.96140892 21.6590996,9.97106269 L21.593837,9.95873159 C21.6519301,9.97071527 21.7109438,9.98017957 21.7707589,9.98700518 L21.6590996,9.97106269 C21.7154666,9.98074255 21.7726399,9.98806335 21.8305141,9.99291979 L21.7707589,9.98700518 C21.8459842,9.99558931 21.922477,10 22,10 L22.1654457,9.99325472 C22.1758858,9.99239983 22.1863032,9.99146476 22.1966972,9.99045012 C22.2380087,9.98642574 22.2793428,9.98108134 22.3202617,9.97449558 L22.1966972,9.99045012 C22.2586466,9.98440278 22.3197674,9.97552906 22.3799292,9.96395957 L22.3202617,9.97449558 C22.3728056,9.96603882 22.4246648,9.95553517 22.4757549,9.94306904 L22.3799292,9.96395957 C22.4296411,9.95439968 22.4786981,9.9429992 22.5270265,9.9298318 L22.4757549,9.94306904 C22.5273688,9.93047511 22.5781978,9.91587826 22.6281548,9.8993655 L22.5270265,9.9298318 C22.5792459,9.9156043 22.6306148,9.89931392 22.6810401,9.88105365 L22.6281548,9.8993655 C22.6800336,9.88221751 22.7309721,9.86300337 22.7808728,9.84182054 L22.6810401,9.88105365 C22.7277312,9.86414563 22.7736133,9.84554867 22.8186127,9.82533657 L22.7808728,9.84182054 C22.9354789,9.77619025 23.0801229,9.69166186 23.2119063,9.59113384 C23.228797,9.57825099 23.2455831,9.56501845 23.2621491,9.55152589 L23.2119063,9.59113384 C23.2521007,9.56047248 23.2910986,9.52832272 23.328818,9.49476681 L23.2621491,9.55152589 C23.3009978,9.51988453 23.3386355,9.48681321 23.374982,9.45239219 L23.328818,9.49476681 C23.3686106,9.45936647 23.4069802,9.42240114 23.4438301,9.38396739 L23.374982,9.45239219 C23.4107572,9.41851223 23.4452815,9.38332465 23.4784783,9.34690598 L23.4438301,9.38396739 C23.4765207,9.34987175 23.5080154,9.31462047 23.5382468,9.27828096 L23.4784783,9.34690598 C23.5148165,9.30704095 23.5495642,9.26570079 23.5826209,9.22298585 L23.5382468,9.27828096 C23.6156299,9.18526278 23.6847356,9.08511446 23.7444332,8.97896663 L23.750148,8.96873506 C23.9093469,8.6817347 24,8.35145393 24,8 C24,6.8954305 23.1045695,6 22,6 Z M9,6 C7.8954305,6 7,6.8954305 7,8 C7,8.44570348 7.14579339,8.85735509 7.3922915,9.18986615 L7.38516506,9.18019263 C7.44834029,9.26648728 7.5182655,9.34752933 7.59416331,9.42254141 C7.60750432,9.43572021 7.62066069,9.44836767 7.63398778,9.46083489 L7.59416331,9.42254141 C7.63303602,9.46096048 7.67347546,9.49779776 7.71537719,9.53294882 L7.63398778,9.46083489 C7.67222369,9.4966038 7.71186488,9.53088904 7.75281955,9.56359882 L7.71537719,9.53294882 C7.75246263,9.56405953 7.79069353,9.59384938 7.82999746,9.62224595 L7.75281955,9.56359882 C7.79719385,9.59903979 7.84311013,9.63263121 7.89045163,9.66425633 L7.82999746,9.62224595 C7.87133862,9.65211439 7.91386693,9.68044138 7.95749815,9.70714266 L7.89045163,9.66425633 C7.93192693,9.6919627 7.97449613,9.71815987 8.01808072,9.74276933 L7.95749815,9.70714266 C8.06513786,9.77301563 8.17949012,9.82899411 8.29928971,9.87381289 C8.31627917,9.88017011 8.33349591,9.88634328 8.35082004,9.89228524 L8.29928971,9.87381289 C8.35249491,9.89371773 8.40677455,9.91142142 8.4620178,9.92681314 L8.35082004,9.89228524 C8.39938895,9.90894378 8.44880194,9.92378505 8.49897784,9.93672788 L8.4620178,9.92681314 C8.51393378,9.94127782 8.5667008,9.95370063 8.62022687,9.96398959 L8.49897784,9.93672788 C8.55317011,9.95070673 8.60825231,9.96247106 8.66412218,9.97191861 L8.62022687,9.96398959 C8.67206969,9.97395499 8.72462457,9.98191863 8.77780792,9.98779694 L8.66412218,9.97191861 C8.72148689,9.98161893 8.77968197,9.98887684 8.83859676,9.99358164 L8.77780792,9.98779694 C8.85076128,9.9958604 8.92489721,10 9,10 C10.1045695,10 11,9.1045695 11,8 L10.9935007,7.83758593 C10.991849,7.8170339 10.9898866,7.79656956 10.9876183,7.77619759 C10.9838119,7.74200857 10.9791393,7.70805309 10.9736258,7.67438049 L10.9876183,7.77619759 C10.9811063,7.71771374 10.9720724,7.65999126 10.9606278,7.60314138 L10.9736258,7.67438049 C10.9653722,7.62397376 10.9552342,7.57420093 10.9432864,7.52513671 L10.9606278,7.60314138 C10.9502058,7.55137135 10.9377848,7.50032495 10.9234486,7.45008615 L10.9432864,7.52513671 C10.9297136,7.46939933 10.9138053,7.41457642 10.8956711,7.3607775 L10.9234486,7.45008615 C10.9092351,7.40027728 10.8931391,7.35126226 10.8752425,7.30312294 L10.8956711,7.3607775 C10.8560149,7.24312964 10.8057139,7.13037865 10.7459134,7.02366998 C10.7359551,7.00591264 10.7260437,6.98883864 10.7158894,6.97192715 L10.7459134,7.02366998 C10.7208833,6.97900605 10.694189,6.93540069 10.6659145,6.89293788 L10.7158894,6.97192715 C10.6876952,6.92497113 10.6576282,6.87926787 10.6257916,6.83492068 L10.6659145,6.89293788 C10.6374143,6.85013615 10.6073085,6.80849528 10.5756832,6.76810131 L10.6257916,6.83492068 C10.5962692,6.79379702 10.5652251,6.75383945 10.5327417,6.71513035 L10.5756832,6.76810131 C10.5399073,6.72240597 10.5021869,6.67830629 10.4626464,6.63592678 L10.5327417,6.71513035 C10.5009894,6.67729236 10.4678618,6.64064728 10.4334359,6.60527205 L10.4626464,6.63592678 C10.4181577,6.58824375 10.3713648,6.54273838 10.3224453,6.49958804 L10.3121469,6.49056628 C9.96094355,6.1850063 9.50207705,6 9,6 Z" id="形状结合"></path>
            </g>
        </g>
    </g>
</svg>