<?xml version="1.0" encoding="UTF-8"?>
<svg width="64px" height="64px" viewBox="0 0 64 64" version="1.1" xmlns="http://www.w3.org/2000/svg" xmlns:xlink="http://www.w3.org/1999/xlink">
    <!-- Generator: Sketch 64 (93537) - https://sketch.com -->
    <title>03 反馈/空状态/文件打开失败_浅色备份</title>
    <desc>Created with Sketch.</desc>
    <g id="03-反馈/空状态/文件打开失败_浅色备份" stroke="none" stroke-width="1" fill="none" fill-rule="evenodd">
        <g id="编组" transform="translate(11.000000, 5.000000)">
            <path d="M6.5,4.25 L31.5,4.25 L31.5,4.25 L42.0002656,14.5453824 C42.4797998,15.0155598 42.75,15.6588989 42.75,16.3304791 L42.75,52.25 C42.75,53.4926407 41.7426407,54.5 40.5,54.5 L6.5,54.5 C5.25735931,54.5 4.25,53.4926407 4.25,52.25 L4.25,6.5 C4.25,5.25735931 5.25735931,4.25 6.5,4.25 Z" id="矩形" fill="#202020" opacity="0.04"></path>
            <path d="M26.8357864,0 C27.1010029,0 27.3553568,0.10535684 27.5428932,0.292893219 L38.2071068,10.9571068 C38.3946432,11.1446432 38.5,11.3989971 38.5,11.6642136 L38.5,47.5 C38.5,49.5710678 36.8210678,51.25 34.75,51.25 L3.75,51.25 C1.67893219,51.25 0,49.5710678 0,47.5 L0,3.75 C0,1.67893219 1.67893219,0 3.75,0 L26.8357864,0 Z M25.25,2 L3.75,2 C2.80363707,2 2.03272533,2.75119585 2.00101475,3.68983756 L2,3.75 L2,47.5 C2,48.4463629 2.75119585,49.2172747 3.68983756,49.2489852 L3.75,49.25 L34.75,49.25 C35.6963629,49.25 36.4672747,48.4988042 36.4989852,47.5601624 L36.5,47.5 L36.5,13 L28.25,13 C26.6186358,13 25.2914018,11.6978639 25.25095,10.0762437 L25.25,2 Z M19.1694002,26.2973055 C21.6977753,26.383647 23.7374947,28.3953531 23.8683304,30.9121958 L23.8720492,30.9981908 C23.8738601,31.0506528 23.8724025,31.1521591 23.7732125,31.167465 L23.7463462,31.1694174 L21.7944174,31.1694174 C21.6549802,31.1694174 21.6255362,31.0506767 21.6203408,31.0072327 L21.6195332,30.9986321 C21.5333321,29.6563348 20.4382473,28.5886065 19.0845863,28.5457544 C17.7547813,28.5879843 16.6745791,29.6192707 16.5553482,30.9282468 L16.5498841,30.9986321 C16.5477601,31.0317063 16.5251631,31.1694174 16.375,31.1694174 L14.4230712,31.1694174 C14.2973682,31.1694174 14.2954064,31.0550246 14.2973682,30.9981908 C14.3856257,28.4414039 16.4427793,26.3847594 18.9997723,26.2973055 L19.1694002,26.2973055 Z M12.098796,20.1793786 L13.1594562,21.2400388 C13.2570872,21.3376699 13.2570872,21.4959611 13.1594562,21.5935922 L11.8336309,22.9194174 L13.1594562,24.2452426 C13.2570872,24.3428737 13.2570872,24.5011649 13.1594562,24.598796 L12.098796,25.6594562 C12.0011649,25.7570872 11.8428737,25.7570872 11.7452426,25.6594562 L10.4187103,24.3329238 L9.09359217,25.6594562 C8.99596109,25.7570872 8.83766985,25.7570872 8.74003878,25.6594562 L7.67937861,24.598796 C7.58174753,24.5011649 7.58174753,24.3428737 7.67937861,24.2452426 L9.00449671,22.9187103 L7.67937861,21.5935922 C7.58174753,21.4959611 7.58174753,21.3376699 7.67937861,21.2400388 L8.74003878,20.1793786 C8.83766985,20.0817475 8.99596109,20.0817475 9.09359217,20.1793786 L10.4194174,21.5052038 L11.7452426,20.1793786 C11.8428737,20.0817475 12.0011649,20.0817475 12.098796,20.1793786 Z M29.6432134,20.1793786 L30.7038735,21.2400388 C30.8015046,21.3376699 30.8015046,21.4959611 30.7038735,21.5935922 L29.3780483,22.9194174 L30.7038735,24.2452426 C30.8015046,24.3428737 30.8015046,24.5011649 30.7038735,24.598796 L29.6432134,25.6594562 C29.5455823,25.7570872 29.3872911,25.7570872 29.28966,25.6594562 L27.9631277,24.3329238 L26.6380096,25.6594562 C26.5403785,25.7570872 26.3820872,25.7570872 26.2844562,25.6594562 L25.223796,24.598796 C25.1261649,24.5011649 25.1261649,24.3428737 25.223796,24.2452426 L26.5489141,22.9187103 L25.223796,21.5935922 C25.1261649,21.4959611 25.1261649,21.3376699 25.223796,21.2400388 L26.2844562,20.1793786 C26.3820872,20.0817475 26.5403785,20.0817475 26.6380096,20.1793786 L27.9638348,21.5052038 L29.28966,20.1793786 C29.3872911,20.0817475 29.5455823,20.0817475 29.6432134,20.1793786 Z M27.25,2.829 L27.25,10 C27.25,10.5355488 27.6709921,10.9727697 28.2000899,10.9987762 L28.25,11 L35.422,11 L27.25,2.829 Z" id="形状结合" fill="#909093"></path>
        </g>
    </g>
</svg>