<?xml version="1.0" encoding="UTF-8"?>
<svg width="64px" height="64px" viewBox="0 0 64 64" version="1.1" xmlns="http://www.w3.org/2000/svg" xmlns:xlink="http://www.w3.org/1999/xlink">
    <!-- Generator: Sketch 62 (91390) - https://sketch.com -->
    <title>icon/64px/no_app</title>
    <desc>Created with Sketch.</desc>
    <g id="icon/64px/no_app" stroke="none" stroke-width="1" fill="none" fill-rule="evenodd" opacity="0.200000003">
        <g id="box2-箱子" transform="translate(6.000000, 6.000000)" fill="#ECECEC">
            <path d="M26,0 C40.3594035,0 52,11.6405965 52,26 C52,40.3594035 40.3594035,52 26,52 C11.6405965,52 0,40.3594035 0,26 C0,11.6405965 11.6405965,0 26,0 Z M31.5556,12.0325009 C31.3807,11.9891664 31.2025,11.9891664 31.0243,12.0325009 L31.0243,12.0325009 L26.5,14.5192391 L21.9757,12.0325009 C21.8008,11.9891664 21.6226,11.9891664 21.4444,12.0325009 L21.4444,12.0325009 L10.2673,17.9493376 C10.0891,18.0393402 10,18.1960114 10,18.4193511 C10,18.6426909 10.0891,18.7993621 10.2673,18.8926981 L10.2673,18.8926981 L14.3263,21.1094284 L10.2673,23.3261588 C10.0891,23.4161614 10,23.5728326 10,23.7961723 C10,24.0195121 10.0891,24.1761832 10.2673,24.2661858 L10.2673,24.2661858 L15.3229,26.9529297 L15.3229,34.5498146 C15.3229,34.7731544 15.412,34.9298256 15.5902,35.0198282 L15.5902,35.0198282 L26.236,40.9333314 L26.302,40.9333314 C26.3449,40.976666 26.4109,41 26.5,41 C26.5891,41 26.6551,40.976666 26.698,40.9333314 L26.698,40.9333314 L26.7673,40.9333314 L37.4098,35.0164947 C37.588,34.9264921 37.6771,34.7731544 37.6771,34.5464812 L37.6771,34.5464812 L37.6771,26.9529297 L42.7327,24.2661858 C42.9109,24.1761832 43,24.0228455 43,23.7961723 C43,23.5728326 42.9109,23.4161614 42.7327,23.3261588 L42.7327,23.3261588 L38.677,21.106095 L42.7327,18.8893646 C42.9109,18.7993621 43,18.6460243 43,18.4193511 C43,18.1960114 42.9109,18.0393402 42.7327,17.9460042 L42.7327,17.9460042 Z M16.3855,27.4929452 L21.4378,30.1796891 C21.484,30.2230237 21.5731,30.2463577 21.7051,30.2463577 C21.8404,30.2463577 21.9295,30.2230237 21.9724,30.1796891 L21.9724,30.1796891 L25.9654,28.0296273 L25.9654,39.5232909 L16.3855,34.2131383 L16.3855,27.4929452 Z M36.607,27.496 L36.6079,34.2131383 L27.028,39.5232909 L27.028,28.0296273 L31.021,30.1796891 C31.0672,30.2230237 31.153,30.2463577 31.2883,30.2463577 C31.4236,30.2463577 31.5127,30.2230237 31.5556,30.1796891 L31.5556,30.1796891 L36.607,27.496 Z M15.4549,21.7127791 L25.3681,27.0896003 L21.7084,29.1063249 L11.6632,23.7961723 L15.4549,21.7127791 Z M37.5451,21.7127791 L41.3368,23.7961723 L31.2916,29.1063249 L27.6319,27.0896003 L37.5451,21.7127791 Z M26.5,15.7292738 L36.4132,21.106095 L26.5,26.4829162 L16.5868,21.106095 L26.5,15.7292738 Z M21.7084,13.1091985 L25.3681,15.1259232 L15.4549,20.5027443 L11.6632,18.4193511 L21.7084,13.1091985 Z M31.2916,13.1091985 L41.3368,18.4193511 L37.5451,20.5027443 L27.6319,15.1259232 L31.2916,13.1091985 Z" id="形状结合"></path>
        </g>
    </g>
</svg>