<?xml version="1.0" encoding="UTF-8"?>
<svg width="64px" height="64px" viewBox="0 0 64 64" version="1.1" xmlns="http://www.w3.org/2000/svg" xmlns:xlink="http://www.w3.org/1999/xlink">
    <!-- Generator: Sketch 62 (91390) - https://sketch.com -->
    <title>icon/64px/no_wifi</title>
    <desc>Created with Sketch.</desc>
    <g id="icon/64px/no_wifi" stroke="none" stroke-width="1" fill="none" fill-rule="evenodd" opacity="0.200000003">
        <path d="M32,6 C46.3594035,6 58,17.6405965 58,32 C58,46.3594035 46.3594035,58 32,58 C17.6405965,58 6,46.3594035 6,32 C6,17.6405965 17.6405965,6 32,6 Z M32.1068383,41.4056868 C31.0815598,41.4056868 30.2759838,42.2044231 30.2759838,43.2209965 C30.2759838,44.2012637 31.0815598,45 32.1068383,45 C33.1321169,45 33.9376929,44.2012637 33.9376929,43.2209965 C33.9376929,42.2044231 33.0954998,41.4056868 32.1068383,41.4056868 Z M19.2908567,19.1862963 C19.0345371,19.4404397 18.99792,19.876114 19.2908567,20.1302574 L39.2105539,40.2438886 C39.3570222,40.3891134 39.5401077,40.4617258 39.6865761,40.4617258 C39.8696615,40.4617258 40.0161299,40.3891134 40.1625982,40.2801948 C40.4189179,40.0260515 40.455535,39.5903771 40.1625982,39.3362338 L20.2795182,19.2226025 C19.9865814,18.932153 19.5471764,18.932153 19.2908567,19.1862963 Z M31.1914111,34.4712038 C29.2507053,34.6164286 27.3832337,35.3788587 25.9185501,36.7221878 C25.4425279,37.1578622 25.4059108,37.8476798 25.8453159,38.3196604 C26.284721,38.7916409 26.9804457,38.8279471 27.4564679,38.3922728 C28.6648319,37.3030869 30.2027497,36.7221879 31.8139016,36.7221878 C32.4730093,36.7221878 33.0954998,36.7948002 33.6813732,36.9763312 L31.1914111,34.4712038 Z M31.8139016,27.6093333 C31.4843478,27.6093333 31.154794,27.6093333 30.8252402,27.6456394 L33.0954998,29.9329296 C35.8783987,30.187073 38.5148292,31.3488712 40.6386204,33.2004871 C40.858323,33.382018 41.1146426,33.4909366 41.4075793,33.4909366 C41.7371331,33.4909366 42.0300698,33.3457118 42.2497724,33.1278747 C42.6891775,32.6558942 42.6159433,31.9297703 42.1765382,31.5304022 C39.3204052,28.9889686 35.6220791,27.6093333 31.8139016,27.6093333 Z M25.6622305,28.8437438 C24.1609298,29.4972553 22.7328632,30.368604 21.4878821,31.494096 C21.01186,31.8934641 20.9752429,32.619588 21.414648,33.0915685 C21.8540531,33.563549 22.5497778,33.5998552 23.0257999,33.1641809 C24.3073981,32.0386889 25.8086988,31.1673402 27.3832337,30.5864411 L25.6622305,28.8437438 Z M31.9969871,20.8926874 C29.6901104,20.8926874 27.3832337,21.2557494 25.2228254,21.9455671 L27.0536799,23.7971829 C28.6648318,23.3978148 30.349218,23.1799776 32.0336042,23.1799776 C36.8670601,23.1799776 41.5174306,24.8863687 45.1425225,28.0087014 C45.3622251,28.1902323 45.6185447,28.2991509 45.8748643,28.2991509 C46.2044181,28.2991509 46.4973549,28.1539261 46.7536745,27.8997828 C47.1198454,27.4278023 47.0832283,26.7016784 46.6072062,26.3023103 C42.5427091,22.8169157 37.3796994,20.8926874 31.9969871,20.8926874 Z M20.7555403,23.9061015 C19.5837934,24.5959192 18.4486636,25.3946554 17.386768,26.3023103 C16.9107458,26.7016784 16.8741287,27.4278023 17.2769168,27.8997828 C17.6797047,28.3717633 18.4120466,28.4080695 18.8880687,28.0087014 C19.9865814,27.0647403 21.1583283,26.2660041 22.4033094,25.5761864 L20.7555403,23.9061015 Z" id="形状结合" fill="#ECECEC"></path>
    </g>
</svg>