<?xml version="1.0" encoding="UTF-8"?>
<svg width="256px" height="256px" viewBox="0 0 256 256" version="1.1" xmlns="http://www.w3.org/2000/svg" xmlns:xlink="http://www.w3.org/1999/xlink">
    <!-- Generator: Sketch 64 (93537) - https://sketch.com -->
    <title>03 反馈/空状态/文件打开失败_浅色</title>
    <desc>Created with Sketch.</desc>
    <g id="03-反馈/空状态/文件打开失败_浅色" stroke="none" stroke-width="1" fill="none" fill-rule="evenodd">
        <path d="M77,43 L177,43 L177,43 L219.001062,84.1815294 C220.919199,86.0622393 222,88.6355957 222,91.3219164 L222,235 C222,239.970563 217.970563,244 213,244 L77,244 C72.0294373,244 68,239.970563 68,235 L68,52 C68,47.0294373 72.0294373,43 77,43 Z" id="矩形" fill="#202020" opacity="0.04"></path>
        <path d="M158.343146,26 C159.404012,26 160.421427,26.4214274 161.171573,27.1715729 L203.828427,69.8284271 C204.578573,70.5785726 205,71.5959883 205,72.6568542 L205,216 C205,224.284271 198.284271,231 190,231 L66,231 C57.7157288,231 51,224.284271 51,216 L51,41 C51,32.7157288 57.7157288,26 66,26 L158.343146,26 Z M152,34 L66,34 C62.2145483,34 59.1309013,37.0047834 59.004059,40.7593502 L59,41 L59,216 C59,219.785452 62.0047834,222.869099 65.7593502,222.995941 L66,223 L190,223 C193.785452,223 196.869099,219.995217 196.995941,216.24065 L197,216 L197,78 L164,78 C157.474543,78 152.165607,72.7914556 152.0038,66.3049748 L152,66 L152,34 Z M127.677601,131.189222 C137.791101,131.534588 145.949979,139.581412 146.473322,149.648783 L146.488197,149.992763 C146.49544,150.202611 146.48961,150.608636 146.09285,150.66986 L145.985385,150.67767 L138.17767,150.67767 C137.619921,150.67767 137.502145,150.202707 137.481363,150.028931 L137.478133,149.994528 C137.133328,144.625339 132.752989,140.354426 127.338345,140.183018 C122.019125,140.351937 117.698316,144.477083 117.221393,149.712987 L117.199537,149.994528 C117.191041,150.126825 117.100652,150.67767 116.5,150.67767 L108.692285,150.67767 C108.189473,150.67767 108.181625,150.220098 108.189473,149.992763 C108.542503,139.765616 116.771117,131.539037 126.999089,131.189222 L127.677601,131.189222 Z M87.3743687,106.717514 L92.6776695,112.020815 L97.9809704,106.717514 C98.3714947,106.32699 99.0046597,106.32699 99.395184,106.717514 L103.637825,110.960155 C104.028349,111.350679 104.028349,111.983844 103.637825,112.374369 L98.3345238,117.67767 L103.637825,122.98097 C104.028349,123.371495 104.028349,124.00466 103.637825,124.395184 L99.395184,128.637825 C99.0046597,129.028349 98.3714947,129.028349 97.9809704,128.637825 L92.6769624,123.333817 L87.3743687,128.637825 C86.9838444,129.028349 86.3506794,129.028349 85.9601551,128.637825 L81.7175144,124.395184 C81.3269901,124.00466 81.3269901,123.371495 81.7175144,122.98097 L87.0201082,117.676962 L81.7175144,112.374369 C81.3269901,111.983844 81.3269901,111.350679 81.7175144,110.960155 L85.9601551,106.717514 C86.3506794,106.32699 86.9838444,106.32699 87.3743687,106.717514 Z M157.552038,106.717514 L162.855339,112.020815 L168.15864,106.717514 C168.549164,106.32699 169.182329,106.32699 169.572853,106.717514 L173.815494,110.960155 C174.206018,111.350679 174.206018,111.983844 173.815494,112.374369 L168.512193,117.67767 L173.815494,122.98097 C174.206018,123.371495 174.206018,124.00466 173.815494,124.395184 L169.572853,128.637825 C169.182329,129.028349 168.549164,129.028349 168.15864,128.637825 L162.854632,123.333817 L157.552038,128.637825 C157.161514,129.028349 156.528349,129.028349 156.137825,128.637825 L151.895184,124.395184 C151.50466,124.00466 151.50466,123.371495 151.895184,122.98097 L157.197778,117.676962 L151.895184,112.374369 C151.50466,111.983844 151.50466,111.350679 151.895184,110.960155 L156.137825,106.717514 C156.528349,106.32699 157.161514,106.32699 157.552038,106.717514 Z M160,37.314 L160,66 C160,68.1421954 161.683968,69.8910789 163.80036,69.9951047 L164,70 L192.686,70 L160,37.314 Z" id="形状结合" fill="#909093"></path>
    </g>
</svg>