<?xml version="1.0" encoding="utf-8"?>
<!-- Generator: Adobe Illustrator 23.0.3, SVG Export Plug-In . SVG Version: 6.00 Build 0)  -->
<svg version="1.1" id="图层_1" xmlns="http://www.w3.org/2000/svg" xmlns:xlink="http://www.w3.org/1999/xlink" x="0px" y="0px"
	 viewBox="0 0 48 48" style="enable-background:new 0 0 48 48;" xml:space="preserve">
<style type="text/css">
	.st0{fill-rule:evenodd;clip-rule:evenodd;fill:#474751;}
	.st1{opacity:0.5;fill-rule:evenodd;clip-rule:evenodd;fill:#474751;enable-background:new    ;}
	.st2{opacity:0.7;fill-rule:evenodd;clip-rule:evenodd;fill:#474751;enable-background:new    ;}
	.st3{opacity:0.3;fill-rule:evenodd;clip-rule:evenodd;fill:#474751;enable-background:new    ;}
	.st4{opacity:0.8;fill-rule:evenodd;clip-rule:evenodd;fill:#474751;enable-background:new    ;}
	.st5{opacity:0.4;fill-rule:evenodd;clip-rule:evenodd;fill:#474751;enable-background:new    ;}
	.st6{opacity:0.6;fill-rule:evenodd;clip-rule:evenodd;fill:#474751;enable-background:new    ;}
	.st7{opacity:0.2;fill-rule:evenodd;clip-rule:evenodd;fill:#474751;enable-background:new    ;}
</style>
<title>01 icon/loading/浅色</title>
<desc>Created with Sketch.</desc>
<g>
	<g transform="translate(1.000000, 1.000000)">
		<g id="icon_loading_whitebg">
			<path id="矩形-copy" class="st0" d="M23-1L23-1c1.1,0,2,0.9,2,2v8c0,1.1-0.9,2-2,2l0,0c-1.1,0-2-0.9-2-2V1C21-0.1,21.9-1,23-1z
				"/>
			<path id="矩形-copy-2" class="st1" d="M23,35L23,35c1.1,0,2,0.9,2,2v8c0,1.1-0.9,2-2,2l0,0c-1.1,0-2-0.9-2-2v-8
				C21,35.9,21.9,35,23,35z"/>
			<path class="st2" d="M47,23L47,23c0,1.1-0.9,2-2,2h-8c-1.1,0-2-0.9-2-2l0,0c0-1.1,0.9-2,2-2h8C46.1,21,47,21.9,47,23z"/>
			<path class="st3" d="M11,23L11,23c0,1.1-0.9,2-2,2H1c-1.1,0-2-0.9-2-2l0,0c0-1.1,0.9-2,2-2h8C10.1,21,11,21.9,11,23z"/>
			<path class="st4" d="M39.9,6L39.9,6c0.8,0.8,0.8,2,0,2.8l-5.7,5.7c-0.8,0.8-2,0.8-2.8,0l0,0c-0.8-0.8-0.8-2,0-2.8L37.1,6
				C37.9,5.2,39.1,5.2,39.9,6z"/>
			<path class="st5" d="M14.5,31.5L14.5,31.5c0.8,0.8,0.8,2,0,2.8L8.8,40c-0.8,0.8-2,0.8-2.8,0l0,0c-0.8-0.8-0.8-2,0-2.8l5.7-5.7
				C12.4,30.7,13.7,30.7,14.5,31.5z"/>
			<path class="st6" d="M39.9,40L39.9,40c-0.8,0.8-2,0.8-2.8,0l-5.7-5.7c-0.8-0.8-0.8-2,0-2.8l0,0c0.8-0.8,2-0.8,2.8,0l5.7,5.7
				C40.7,37.9,40.7,39.2,39.9,40z"/>
			<path class="st7" d="M14.5,14.5L14.5,14.5c-0.8,0.8-2,0.8-2.8,0L6,8.9C5.2,8.1,5.2,6.8,6,6l0,0c0.8-0.8,2-0.8,2.8,0l5.7,5.7
				C15.2,12.5,15.2,13.7,14.5,14.5z"/>
		</g>
	</g>
</g>
</svg>
