<?xml version="1.0" encoding="UTF-8"?>
<svg width="40px" height="40px" viewBox="0 0 40 40" version="1.1" xmlns="http://www.w3.org/2000/svg" xmlns:xlink="http://www.w3.org/1999/xlink">
    <!-- Generator: Sketch 62 (91390) - https://sketch.com -->
    <title>icon/40px/bar/page_next</title>
    <desc>Created with Sketch.</desc>
    <g id="icon/40px/bar/page_next" stroke="none" stroke-width="1" fill="none" fill-rule="evenodd">
        <path d="M10.7172335,5.52938666 L30.0189387,19.7758833 C30.4188573,20.0710613 30.5037663,20.6345485 30.2085883,21.0344671 C30.1551989,21.1068011 30.0912727,21.1707273 30.0189387,21.2241167 L10.7172335,35.4706133 C10.5172742,35.6182023 10.2355307,35.5757478 10.0879417,35.3757885 C10.0308206,35.2983987 10,35.2047423 10,35.108555 L10,30.0585763 C10,29.7804178 10.1286183,29.5178892 10.348414,29.3474133 L21.2969815,20.8555815 C21.4933637,20.7032652 21.5290863,20.4205892 21.37677,20.224207 C21.3536269,20.1943684 21.32682,20.1675616 21.2969815,20.1444185 L10.348414,11.6525867 C10.1286183,11.4821108 10,11.2195822 10,10.9414237 L10,5.89144499 C10,5.64291685 10.2014719,5.44144499 10.45,5.44144499 C10.5461873,5.44144499 10.6398437,5.47226561 10.7172335,5.52938666 Z" id="路径" fill="#FBFCFE"></path>
    </g>
</svg>