<?xml version="1.0" encoding="UTF-8"?>
<svg width="40px" height="40px" viewBox="0 0 40 40" version="1.1" xmlns="http://www.w3.org/2000/svg" xmlns:xlink="http://www.w3.org/1999/xlink">
    <!-- Generator: Sketch 62 (91390) - https://sketch.com -->
    <title>icon/40px/loading</title>
    <desc>Created with Sketch.</desc>
    <g id="icon/40px/loading" stroke="none" stroke-width="1" fill="none" fill-rule="evenodd">
        <path d="M28,5 C29.1045695,5 30,5.8954305 30,7 L30,7 L30,14.9016319 C30,15.5856927 29.6503835,16.2223035 29.0731333,16.5893477 L29.0731333,16.5893477 L23.262,20.284 L29.1469247,24.4028473 C29.6370236,24.7459165 29.9454281,25.2884018 29.9934253,25.879123 L30,26.0413111 L30,33 C30,34.1045695 29.1045695,35 28,35 L28,35 L12,35 C10.8954305,35 10,34.1045695 10,33 L10,33 L10,26.0413111 C10,25.3886835 10.318422,24.7771046 10.8530753,24.4028473 L10.8530753,24.4028473 L16.737,20.283 L10.9268667,16.5893477 C10.3977207,16.2528905 10.0598502,15.6899225 10.0072131,15.07153 L10,14.9016319 L10,7 C10,5.8954305 10.8954305,5 12,5 L12,5 Z M20,23 L14.4452998,26.7031335 C14.1671011,26.8885992 14,27.2008306 14,27.5351838 L14,27.5351838 L14,30 C14,30.5522847 14.4477153,31 15,31 L15,31 L25,31 C25.5522847,31 26,30.5522847 26,30 L26,30 L26,27.5351838 C26,27.2008306 25.8328989,26.8885992 25.5547002,26.7031335 L25.5547002,26.7031335 L20,23 Z M25,9 L15,9 C14.4477153,9 14,9.44771525 14,10 L14,10 L14,13.4648162 C14,13.7991694 14.1671011,14.1114008 14.4452998,14.2968665 L14.4452998,14.2968665 L20,18 L25.5547002,14.2968665 C25.8328989,14.1114008 26,13.7991694 26,13.4648162 L26,13.4648162 L26,10 C26,9.44771525 25.5522847,9 25,9 L25,9 Z" id="形状结合" fill="#B3B3B7"></path>
    </g>
</svg>