<?xml version="1.0" encoding="UTF-8"?>
<svg width="32px" height="32px" viewBox="0 0 32 32" version="1.1" xmlns="http://www.w3.org/2000/svg" xmlns:xlink="http://www.w3.org/1999/xlink">
    <title>01 通用/01 图标/32px/rotate</title>
    <g id="icon/button" stroke="none" stroke-width="1" fill="none" fill-rule="evenodd">
        <g id="01-通用/01-图标/32px/rotate" fill="#FBFCFE" fill-rule="nonzero">
            <g id="编组">
                <path d="M17,11.9852006 C19.209139,11.9852006 21,13.7776207 21,15.9886828 L21,24.9965178 C21,27.20758 19.209139,29 17,29 L8,29 C5.790861,29 4,27.20758 4,24.9965178 L4,15.9886828 C4,13.7776207 5.790861,11.9852006 8,11.9852006 L17,11.9852006 Z M17,14.9878123 L8,14.9878123 C7.48716416,14.9878123 7.06449284,15.3741886 7.00672773,15.8719602 L7,15.9886828 L7,24.9965178 C7,25.5098001 7.38604019,25.9328394 7.88337887,25.9906548 L8,25.9973883 L17,25.9973883 C17.5128358,25.9973883 17.9355072,25.6110121 17.9932723,25.1132404 L18,24.9965178 L18,15.9886828 C18,15.4754006 17.6139598,15.0523613 17.1166211,14.9945459 L17,14.9878123 Z M19.48,2 C20.2728354,2 20.9238953,2.60754188 20.9937883,3.38285181 L21,3.52132324 L21,4.97910679 C25.6203195,4.97910679 28,7.87123441 28,12.4856359 C28,13.3147842 27.3284271,13.9869417 26.5,13.9869417 C25.6715729,13.9869417 25,13.3147842 25,12.4856359 C25,9.50252012 23.887274,8.06494473 21.237778,7.98523276 L21,7.98171844 L21,9.439502 L20.9821116,9.58595344 L20.9492341,9.80564361 C20.9271493,9.91987015 20.8987531,10.0001039 20.8447484,10.0985552 L20.7814928,10.2050128 L20.63407,10.429566 C20.1218935,11.0276256 19.2465051,11.1299359 18.6139012,10.6898415 L18.4907971,10.5945767 L15.0326709,7.62788815 L14.8864142,7.48392573 L14.8027441,7.32212503 L14.6655453,7.04664778 C14.431938,6.55100702 14.4454803,6.3518414 14.7495075,5.81182097 L14.8315912,5.66934589 L15.0326709,5.33293708 L18.4907971,2.36624852 L18.715155,2.21869742 C18.8640143,2.12489278 18.9545628,2.08362955 19.0961984,2.05440355 L19.2137133,2.03410817 L19.48,2 Z" id="形状"></path>
            </g>
        </g>
    </g>
</svg>