<svg xmlns="http://www.w3.org/2000/svg" width="32" height="32" viewBox="0 0 32 32">
  <path fill="#D1D1D1" fill-rule="evenodd" d="M15.7494628,9.52082983 L15.8910678,9.50389493 L15.8910678,9.50389493 L16,9.5 L16.0895597,9.50262949 L16.0895597,9.50262949 L16.2145543,9.51534921 L16.2145543,9.51534921 L16.3235334,9.53498037 L16.3235334,9.53498037 L16.4175084,9.55889568 L16.4175084,9.55889568 L16.5519829,9.60484786 L16.5519829,9.60484786 L16.6459355,9.6459427 L16.6459355,9.6459427 L16.7732798,9.71448889 L16.7732798,9.71448889 L16.8710958,9.77876359 L16.8710958,9.77876359 L16.961661,9.84877562 L16.961661,9.84877562 L24.9877569,16.871135 C25.6112119,17.416658 25.6743881,18.364302 25.128865,18.9877569 C24.6174372,19.5722459 23.7525827,19.6643025 23.1327627,19.2240292 L23.0122431,19.128865 L17.5,14.304 L17.5,27 C17.5,27.8284271 16.8284271,28.5 16,28.5 C15.2203039,28.5 14.5795513,27.9051119 14.5068666,27.14446 L14.5,27 L14.5,14.304 L8.98775691,19.128865 C8.4032679,19.6402929 7.53384716,19.6167312 6.97795557,19.0980771 L6.87113496,18.9877569 C6.35970707,18.4032679 6.38326884,17.5338472 6.90192287,16.9779556 L7.01224309,16.871135 L15.0909951,9.80675609 L15.0909951,9.80675609 L15.2267024,9.71443237 L15.2267024,9.71443237 L15.3193006,9.66299799 L15.3193006,9.66299799 L15.44802,9.60484221 L15.44802,9.60484221 L15.5825331,9.55888527 L15.5825331,9.55888527 L15.7494628,9.52082983 L15.7494628,9.52082983 Z M24.5,5 C25.3284271,5 26,5.67157288 26,6.5 C26,7.32842712 25.3284271,8 24.5,8 L7.5,8 C6.67157288,8 6,7.32842712 6,6.5 C6,5.67157288 6.67157288,5 7.5,5 L24.5,5 Z"/>
</svg>
