<?xml version="1.0" encoding="UTF-8"?>
<svg width="26px" height="26px" viewBox="0 0 26 26" version="1.1" xmlns="http://www.w3.org/2000/svg" xmlns:xlink="http://www.w3.org/1999/xlink">
    <!-- Generator: Sketch 62 (91390) - https://sketch.com -->
    <title>icon/zoom_out_hover</title>
    <desc>Created with Sketch.</desc>
    <g id="最小尺寸" stroke="none" stroke-width="1" fill="none" fill-rule="evenodd">
        <g id="1024备份" transform="translate(-241.000000, -99.000000)">
            <g id="icon/zoom_out_hover" transform="translate(236.000000, 94.000000)">
                <rect id="矩形" fill-opacity="0" fill="#008FFF" x="0" y="0" width="36" height="36"></rect>
                <g id="icon/32px/zoom_out" transform="translate(2.000000, 2.000000)" fill="#FFFFFF">
                    <path d="M21.9497475,6.39339828 C26.0069814,10.4506322 26.2322695,16.8887321 22.6256118,21.2103731 L28.3137085,26.8994949 L26.8994949,28.3137085 L21.2111431,22.6249692 C16.8894968,26.2322963 10.4508732,26.0072224 6.39339828,21.9497475 C2.09763107,17.6539803 2.09763107,10.6891655 6.39339828,6.39339828 C10.6891655,2.09763107 17.6539803,2.09763107 21.9497475,6.39339828 Z M7.80761184,7.80761184 C4.29289322,11.3223305 4.29289322,17.0208153 7.80761184,20.5355339 C11.3223305,24.0502525 17.0208153,24.0502525 20.5355339,20.5355339 C24.0502525,17.0208153 24.0502525,11.3223305 20.5355339,7.80761184 C17.0208153,4.29289322 11.3223305,4.29289322 7.80761184,7.80761184 Z M19,13 L19,15 L9,15 L9,13 L19,13 Z" id="形状"></path>
                </g>
            </g>
        </g>
    </g>
</svg>