<?xml version="1.0" encoding="UTF-8"?>
<svg width="25px" height="25px" viewBox="0 0 25 25" version="1.1" xmlns="http://www.w3.org/2000/svg" xmlns:xlink="http://www.w3.org/1999/xlink">
    <!-- Generator: Sketch 62 (91390) - https://sketch.com -->
    <title>icon/zoom_in_hover</title>
    <desc>Created with Sketch.</desc>
    <g id="最小尺寸" stroke="none" stroke-width="1" fill="none" fill-rule="evenodd">
        <g id="1024备份" transform="translate(-189.000000, -99.000000)">
            <g id="icon/zoom_in_hover" transform="translate(184.000000, 94.000000)">
                <rect id="矩形" fill-opacity="0" fill="#008FFF" x="0" y="0" width="36" height="36"></rect>
                <g id="icon/32px/zoom_in" transform="translate(2.000000, 2.000000)" fill="#FFFFFF">
                    <path d="M21.6720162,6.20361151 C25.7063135,10.2379088 25.930328,16.6396122 22.3440597,20.9368218 L28,26.5937814 L26.5937814,28 L20.9375874,22.3434207 C16.6403726,25.9303546 10.2381483,25.7065531 6.20361151,21.6720162 C1.9321295,17.4005342 1.9321295,10.4750935 6.20361151,6.20361151 C10.4750935,1.9321295 17.4005342,1.9321295 21.6720162,6.20361151 Z M7.60983013,7.60983013 C4.1149812,11.1046791 4.1149812,16.7709487 7.60983013,20.2657976 C11.1046791,23.7606466 16.7709487,23.7606466 20.2657976,20.2657976 C23.7606466,16.7709487 23.7606466,11.1046791 20.2657976,7.60983013 C16.7709487,4.1149812 11.1046791,4.1149812 7.60983013,7.60983013 Z M14.7615577,8.79547737 L14.7605633,12.7728642 L18.7389445,12.7728642 L18.7389445,14.7615577 L14.7605633,14.7615577 L14.7615577,18.7389445 L12.7728642,18.7389445 L12.7718699,14.7615577 L8.79547737,14.7615577 L8.79547737,12.7728642 L12.7718699,12.7728642 L12.7728642,8.79547737 L14.7615577,8.79547737 Z" id="形状"></path>
                </g>
            </g>
        </g>
    </g>
</svg>