<?xml version="1.0" encoding="UTF-8"?>
<svg width="32px" height="32px" viewBox="0 0 32 32" version="1.1" xmlns="http://www.w3.org/2000/svg" xmlns:xlink="http://www.w3.org/1999/xlink">
    <title>01 通用/01 图标/32px/zoom_in</title>
    <g id="01-通用/01-图标/32px/zoom_in" stroke="none" stroke-width="1" fill="none" fill-rule="evenodd">
        <path d="M15,3 C21.627417,3 27,8.372583 27,15 C27,17.7731354 26.0593313,20.3265659 24.4796695,22.3586158 L30.0606602,27.9393398 C30.6464466,28.5251263 30.6464466,29.4748737 30.0606602,30.0606602 C29.5114854,30.609835 28.642423,30.6441584 28.0532622,30.1636304 L27.9393398,30.0606602 L22.3586158,24.4796695 C20.3265659,26.0593313 17.7731354,27 15,27 C8.372583,27 3,21.627417 3,15 C3,8.372583 8.372583,3 15,3 Z M15,6 C10.0294373,6 6,10.0294373 6,15 C6,19.9705627 10.0294373,24 15,24 C19.9705627,24 24,19.9705627 24,15 C24,10.0294373 19.9705627,6 15,6 Z M15,8.5 C15.7796961,8.5 16.4204487,9.09488808 16.4931334,9.85553999 L16.5,10 L16.5,13.5 L20,13.5 C20.8284271,13.5 21.5,14.1715729 21.5,15 C21.5,15.7796961 20.9051119,16.4204487 20.14446,16.4931334 L20,16.5 L16.5,16.5 L16.5,20 C16.5,20.8284271 15.8284271,21.5 15,21.5 C14.2203039,21.5 13.5795513,20.9051119 13.5068666,20.14446 L13.5,20 L13.5,16.5 L10,16.5 C9.17157288,16.5 8.5,15.8284271 8.5,15 C8.5,14.2203039 9.09488808,13.5795513 9.85553999,13.5068666 L10,13.5 L13.5,13.5 L13.5,10 C13.5,9.17157288 14.1715729,8.5 15,8.5 Z" id="形状" fill="#FBFCFE"></path>
    </g>
</svg>